<mxfile host="app.diagrams.net" modified="2023-09-24T20:03:49.963Z" agent="Mozilla/5.0 (Windows NT 10.0; Win64; x64) AppleWebKit/537.36 (KHTML, like Gecko) Chrome/117.0.0.0 Safari/537.36 Edg/117.0.2045.31" etag="ArgDii15UKbs8rGGTD60" version="21.8.0" type="device">
  <diagram name="Page-1" id="hx43AWU1gbMFay2Nhcge">
    <mxGraphModel dx="1840" dy="643" grid="1" gridSize="10" guides="1" tooltips="1" connect="1" arrows="1" fold="1" page="1" pageScale="1" pageWidth="850" pageHeight="1100" math="0" shadow="0">
      <root>
        <mxCell id="0" />
        <mxCell id="1" parent="0" />
        <mxCell id="8FVI-CwWi8RjOqz_NMWu-9" value="AWS&lt;br&gt;Transfer&lt;br&gt;&amp;nbsp;family" style="outlineConnect=0;dashed=0;verticalLabelPosition=bottom;verticalAlign=top;align=center;html=1;shape=mxgraph.aws3.internet_2;fillColor=#D2D3D3;gradientColor=none;" vertex="1" parent="1">
          <mxGeometry x="105" y="336.5" width="50" height="24" as="geometry" />
        </mxCell>
        <mxCell id="8FVI-CwWi8RjOqz_NMWu-11" value="AWS Cloud" style="points=[[0,0],[0.25,0],[0.5,0],[0.75,0],[1,0],[1,0.25],[1,0.5],[1,0.75],[1,1],[0.75,1],[0.5,1],[0.25,1],[0,1],[0,0.75],[0,0.5],[0,0.25]];outlineConnect=0;gradientColor=none;html=1;whiteSpace=wrap;fontSize=12;fontStyle=0;shape=mxgraph.aws4.group;grIcon=mxgraph.aws4.group_aws_cloud_alt;strokeColor=#232F3E;fillColor=none;verticalAlign=top;align=left;spacingLeft=30;fontColor=#232F3E;dashed=0;labelBackgroundColor=#ffffff;container=1;pointerEvents=0;collapsible=0;recursiveResize=0;" vertex="1" parent="1">
          <mxGeometry x="160" y="130" width="745" height="413" as="geometry" />
        </mxCell>
        <mxCell id="8FVI-CwWi8RjOqz_NMWu-35" value="" style="edgeStyle=orthogonalEdgeStyle;rounded=0;orthogonalLoop=1;jettySize=auto;html=1;" edge="1" parent="8FVI-CwWi8RjOqz_NMWu-11" source="8FVI-CwWi8RjOqz_NMWu-12" target="8FVI-CwWi8RjOqz_NMWu-28">
          <mxGeometry relative="1" as="geometry" />
        </mxCell>
        <mxCell id="8FVI-CwWi8RjOqz_NMWu-12" value="S3 Raw (Landing zone)" style="outlineConnect=0;fontColor=#232F3E;gradientColor=#60A337;gradientDirection=north;fillColor=#277116;strokeColor=#ffffff;dashed=0;verticalLabelPosition=bottom;verticalAlign=top;align=center;html=1;fontSize=12;fontStyle=0;aspect=fixed;shape=mxgraph.aws4.resourceIcon;resIcon=mxgraph.aws4.s3;labelBackgroundColor=none;" vertex="1" parent="8FVI-CwWi8RjOqz_NMWu-11">
          <mxGeometry x="31" y="113" width="78" height="78" as="geometry" />
        </mxCell>
        <object label="Aurora" id="8FVI-CwWi8RjOqz_NMWu-5">
          <mxCell style="outlineConnect=0;dashed=0;verticalLabelPosition=bottom;verticalAlign=top;align=center;html=1;shape=mxgraph.aws3.rds;fillColor=#2E73B8;gradientColor=none;" vertex="1" parent="8FVI-CwWi8RjOqz_NMWu-11">
            <mxGeometry x="640" y="261.5" width="72" height="81" as="geometry" />
          </mxCell>
        </object>
        <mxCell id="8FVI-CwWi8RjOqz_NMWu-41" style="edgeStyle=orthogonalEdgeStyle;rounded=0;orthogonalLoop=1;jettySize=auto;html=1;" edge="1" parent="8FVI-CwWi8RjOqz_NMWu-11" source="8FVI-CwWi8RjOqz_NMWu-7" target="8FVI-CwWi8RjOqz_NMWu-5">
          <mxGeometry relative="1" as="geometry" />
        </mxCell>
        <mxCell id="8FVI-CwWi8RjOqz_NMWu-7" value="DMS" style="outlineConnect=0;dashed=0;verticalLabelPosition=bottom;verticalAlign=top;align=center;html=1;shape=mxgraph.aws3.database_migration_workflow_job;fillColor=#2E73B8;gradientColor=none;pointerEvents=1" vertex="1" parent="8FVI-CwWi8RjOqz_NMWu-11">
          <mxGeometry x="530" y="258.5" width="46.5" height="87" as="geometry" />
        </mxCell>
        <mxCell id="8FVI-CwWi8RjOqz_NMWu-48" value="" style="edgeStyle=orthogonalEdgeStyle;rounded=0;orthogonalLoop=1;jettySize=auto;html=1;" edge="1" parent="8FVI-CwWi8RjOqz_NMWu-11" source="8FVI-CwWi8RjOqz_NMWu-15" target="8FVI-CwWi8RjOqz_NMWu-47">
          <mxGeometry relative="1" as="geometry" />
        </mxCell>
        <mxCell id="8FVI-CwWi8RjOqz_NMWu-15" value="Format &lt;br&gt;Processor" style="outlineConnect=0;fontColor=#232F3E;gradientColor=none;fillColor=#D05C17;strokeColor=none;dashed=0;verticalLabelPosition=bottom;verticalAlign=top;align=center;html=1;fontSize=12;fontStyle=0;aspect=fixed;pointerEvents=1;shape=mxgraph.aws4.lambda_function;labelBackgroundColor=#ffffff;spacingTop=7;" vertex="1" parent="8FVI-CwWi8RjOqz_NMWu-11">
          <mxGeometry x="300" y="262.9999999999999" width="78" height="78" as="geometry" />
        </mxCell>
        <mxCell id="8FVI-CwWi8RjOqz_NMWu-23" value="2" style="rounded=1;whiteSpace=wrap;html=1;fillColor=#007CBD;strokeColor=none;fontColor=#FFFFFF;fontStyle=1;fontSize=22;" vertex="1" parent="8FVI-CwWi8RjOqz_NMWu-11">
          <mxGeometry x="180" y="53" width="40" height="38" as="geometry" />
        </mxCell>
        <mxCell id="8FVI-CwWi8RjOqz_NMWu-26" value="Risk Management&amp;nbsp;" style="whiteSpace=wrap;html=1;fillColor=none;fontSize=14;fontColor=#000000;dashed=0;fontStyle=0;align=center;verticalAlign=top;strokeColor=#D86613;gradientColor=none;spacingLeft=0;labelPosition=center;verticalLabelPosition=bottom;container=1;pointerEvents=0;collapsible=0;recursiveResize=0;" vertex="1" parent="8FVI-CwWi8RjOqz_NMWu-11">
          <mxGeometry x="570" y="43" width="152" height="67" as="geometry" />
        </mxCell>
        <mxCell id="8FVI-CwWi8RjOqz_NMWu-36" value="" style="edgeStyle=orthogonalEdgeStyle;rounded=0;orthogonalLoop=1;jettySize=auto;html=1;" edge="1" parent="8FVI-CwWi8RjOqz_NMWu-11" source="8FVI-CwWi8RjOqz_NMWu-28" target="8FVI-CwWi8RjOqz_NMWu-29">
          <mxGeometry relative="1" as="geometry" />
        </mxCell>
        <mxCell id="8FVI-CwWi8RjOqz_NMWu-28" value="AWS Glue" style="outlineConnect=0;fontColor=#232F3E;gradientColor=#945DF2;gradientDirection=north;fillColor=#5A30B5;strokeColor=#ffffff;dashed=0;verticalLabelPosition=bottom;verticalAlign=top;align=center;html=1;fontSize=12;fontStyle=0;aspect=fixed;shape=mxgraph.aws4.resourceIcon;resIcon=mxgraph.aws4.glue;labelBackgroundColor=#ffffff;" vertex="1" parent="8FVI-CwWi8RjOqz_NMWu-11">
          <mxGeometry x="170" y="113" width="78" height="78" as="geometry" />
        </mxCell>
        <mxCell id="8FVI-CwWi8RjOqz_NMWu-37" style="edgeStyle=orthogonalEdgeStyle;rounded=0;orthogonalLoop=1;jettySize=auto;html=1;" edge="1" parent="8FVI-CwWi8RjOqz_NMWu-11" source="8FVI-CwWi8RjOqz_NMWu-29" target="8FVI-CwWi8RjOqz_NMWu-15">
          <mxGeometry relative="1" as="geometry" />
        </mxCell>
        <mxCell id="8FVI-CwWi8RjOqz_NMWu-38" style="edgeStyle=orthogonalEdgeStyle;rounded=0;orthogonalLoop=1;jettySize=auto;html=1;entryX=0;entryY=0.75;entryDx=0;entryDy=0;" edge="1" parent="8FVI-CwWi8RjOqz_NMWu-11" source="8FVI-CwWi8RjOqz_NMWu-29" target="8FVI-CwWi8RjOqz_NMWu-26">
          <mxGeometry relative="1" as="geometry" />
        </mxCell>
        <mxCell id="8FVI-CwWi8RjOqz_NMWu-29" value="S3 Processed" style="outlineConnect=0;fontColor=#232F3E;gradientColor=#60A337;gradientDirection=north;fillColor=#277116;strokeColor=#ffffff;dashed=0;verticalLabelPosition=bottom;verticalAlign=top;align=center;html=1;fontSize=12;fontStyle=0;aspect=fixed;shape=mxgraph.aws4.resourceIcon;resIcon=mxgraph.aws4.s3;labelBackgroundColor=none;" vertex="1" parent="8FVI-CwWi8RjOqz_NMWu-11">
          <mxGeometry x="300" y="113" width="78" height="78" as="geometry" />
        </mxCell>
        <mxCell id="8FVI-CwWi8RjOqz_NMWu-30" value="3" style="rounded=1;whiteSpace=wrap;html=1;fillColor=#007CBD;strokeColor=none;fontColor=#FFFFFF;fontStyle=1;fontSize=22;" vertex="1" parent="8FVI-CwWi8RjOqz_NMWu-11">
          <mxGeometry x="370" y="53" width="40" height="38" as="geometry" />
        </mxCell>
        <mxCell id="8FVI-CwWi8RjOqz_NMWu-33" value="4" style="rounded=1;whiteSpace=wrap;html=1;fillColor=#007CBD;strokeColor=none;fontColor=#FFFFFF;fontStyle=1;fontSize=22;" vertex="1" parent="8FVI-CwWi8RjOqz_NMWu-11">
          <mxGeometry x="240" y="283" width="40" height="38" as="geometry" />
        </mxCell>
        <mxCell id="8FVI-CwWi8RjOqz_NMWu-44" value="5" style="rounded=1;whiteSpace=wrap;html=1;fillColor=#007CBD;strokeColor=none;fontColor=#FFFFFF;fontStyle=1;fontSize=22;" vertex="1" parent="8FVI-CwWi8RjOqz_NMWu-11">
          <mxGeometry x="590" y="345.5" width="40" height="38" as="geometry" />
        </mxCell>
        <mxCell id="8FVI-CwWi8RjOqz_NMWu-49" value="" style="edgeStyle=orthogonalEdgeStyle;rounded=0;orthogonalLoop=1;jettySize=auto;html=1;" edge="1" parent="8FVI-CwWi8RjOqz_NMWu-11" source="8FVI-CwWi8RjOqz_NMWu-47" target="8FVI-CwWi8RjOqz_NMWu-7">
          <mxGeometry relative="1" as="geometry" />
        </mxCell>
        <mxCell id="8FVI-CwWi8RjOqz_NMWu-47" value="S3 Curated" style="outlineConnect=0;fontColor=#232F3E;gradientColor=#60A337;gradientDirection=north;fillColor=#277116;strokeColor=#ffffff;dashed=0;verticalLabelPosition=bottom;verticalAlign=top;align=center;html=1;fontSize=12;fontStyle=0;aspect=fixed;shape=mxgraph.aws4.resourceIcon;resIcon=mxgraph.aws4.s3;labelBackgroundColor=none;" vertex="1" parent="8FVI-CwWi8RjOqz_NMWu-11">
          <mxGeometry x="410" y="263" width="78" height="78" as="geometry" />
        </mxCell>
        <mxCell id="8FVI-CwWi8RjOqz_NMWu-16" value="External data sources" style="swimlane;fontSize=14;align=center;swimlaneFillColor=#f4f4f4;fillColor=#f4f4f4;startSize=33;container=1;pointerEvents=0;collapsible=0;recursiveResize=0;fontStyle=0" vertex="1" parent="1">
          <mxGeometry x="-60" y="250" width="150" height="273" as="geometry" />
        </mxCell>
        <mxCell id="8FVI-CwWi8RjOqz_NMWu-50" value="Files" style="shape=tapeData;whiteSpace=wrap;html=1;perimeter=ellipsePerimeter;" vertex="1" parent="8FVI-CwWi8RjOqz_NMWu-16">
          <mxGeometry x="35" y="109" width="80" height="80" as="geometry" />
        </mxCell>
        <mxCell id="8FVI-CwWi8RjOqz_NMWu-21" value="1" style="rounded=1;whiteSpace=wrap;html=1;fillColor=#007CBD;strokeColor=none;fontColor=#FFFFFF;fontStyle=1;fontSize=22;labelBackgroundColor=none;" vertex="1" parent="1">
          <mxGeometry x="130" y="267" width="40" height="38" as="geometry" />
        </mxCell>
        <mxCell id="8FVI-CwWi8RjOqz_NMWu-27" value="Ad Hoc analysis&amp;nbsp;" style="whiteSpace=wrap;html=1;fillColor=none;fontSize=14;fontColor=#000000;dashed=0;fontStyle=0;align=center;verticalAlign=top;strokeColor=#D86613;gradientColor=none;spacingLeft=0;labelPosition=center;verticalLabelPosition=bottom;container=1;pointerEvents=0;collapsible=0;recursiveResize=0;" vertex="1" parent="1">
          <mxGeometry x="730" y="268" width="152" height="67" as="geometry" />
        </mxCell>
        <mxCell id="8FVI-CwWi8RjOqz_NMWu-39" style="edgeStyle=orthogonalEdgeStyle;rounded=0;orthogonalLoop=1;jettySize=auto;html=1;entryX=0;entryY=0.75;entryDx=0;entryDy=0;" edge="1" parent="1" source="8FVI-CwWi8RjOqz_NMWu-29" target="8FVI-CwWi8RjOqz_NMWu-27">
          <mxGeometry relative="1" as="geometry" />
        </mxCell>
      </root>
    </mxGraphModel>
  </diagram>
</mxfile>
